<mxfile host="app.diagrams.net" agent="Mozilla/5.0 (Windows NT 10.0; Win64; x64) AppleWebKit/537.36 (KHTML, like Gecko) Chrome/129.0.0.0 Safari/537.36" version="24.8.4">
  <diagram id="C5RBs43oDa-KdzZeNtuy" name="Page-1">
    <mxGraphModel grid="1" page="1" gridSize="10" guides="1" tooltips="1" connect="1" arrows="1" fold="1" pageScale="1" pageWidth="827" pageHeight="1169" math="0" shadow="0">
      <root>
        <mxCell id="WIyWlLk6GJQsqaUBKTNV-0" />
        <mxCell id="WIyWlLk6GJQsqaUBKTNV-1" parent="WIyWlLk6GJQsqaUBKTNV-0" />
        <mxCell id="1mNPDQz00sNLuUKmPUR4-3" value="" style="edgeStyle=none;curved=1;rounded=0;orthogonalLoop=1;jettySize=auto;html=1;fontSize=12;startSize=8;endSize=8;" edge="1" parent="WIyWlLk6GJQsqaUBKTNV-1" source="WIyWlLk6GJQsqaUBKTNV-3" target="1mNPDQz00sNLuUKmPUR4-2">
          <mxGeometry relative="1" as="geometry" />
        </mxCell>
        <mxCell id="WIyWlLk6GJQsqaUBKTNV-3" value="Start" style="rounded=1;whiteSpace=wrap;html=1;fontSize=12;glass=0;strokeWidth=1;shadow=0;" vertex="1" parent="WIyWlLk6GJQsqaUBKTNV-1">
          <mxGeometry x="160" y="20" width="120" height="40" as="geometry" />
        </mxCell>
        <mxCell id="G19gofC9CDhBG3PJQtIi-2" value="" style="edgeStyle=orthogonalEdgeStyle;rounded=0;orthogonalLoop=1;jettySize=auto;html=1;" edge="1" parent="WIyWlLk6GJQsqaUBKTNV-1" source="1mNPDQz00sNLuUKmPUR4-2" target="G19gofC9CDhBG3PJQtIi-1">
          <mxGeometry relative="1" as="geometry" />
        </mxCell>
        <mxCell id="1mNPDQz00sNLuUKmPUR4-2" value="Ініціалізація змінних" style="rounded=0;whiteSpace=wrap;html=1;" vertex="1" parent="WIyWlLk6GJQsqaUBKTNV-1">
          <mxGeometry x="160" y="80" width="120" height="60" as="geometry" />
        </mxCell>
        <mxCell id="1mNPDQz00sNLuUKmPUR4-16" value="" style="edgeStyle=none;curved=1;rounded=0;orthogonalLoop=1;jettySize=auto;html=1;fontSize=12;startSize=8;endSize=8;" edge="1" parent="WIyWlLk6GJQsqaUBKTNV-1" source="1mNPDQz00sNLuUKmPUR4-4" target="1mNPDQz00sNLuUKmPUR4-14">
          <mxGeometry relative="1" as="geometry" />
        </mxCell>
        <mxCell id="1mNPDQz00sNLuUKmPUR4-35" value="" style="edgeStyle=none;curved=1;rounded=0;orthogonalLoop=1;jettySize=auto;html=1;fontSize=12;startSize=8;endSize=8;" edge="1" parent="WIyWlLk6GJQsqaUBKTNV-1" source="1mNPDQz00sNLuUKmPUR4-4" target="1mNPDQz00sNLuUKmPUR4-34">
          <mxGeometry relative="1" as="geometry">
            <Array as="points">
              <mxPoint x="-640" y="490" />
            </Array>
          </mxGeometry>
        </mxCell>
        <mxCell id="1mNPDQz00sNLuUKmPUR4-4" value="Чи є наступний елемент results у char c?" style="rhombus;whiteSpace=wrap;html=1;rounded=0;" vertex="1" parent="WIyWlLk6GJQsqaUBKTNV-1">
          <mxGeometry x="92.5" y="230" width="255" height="80" as="geometry" />
        </mxCell>
        <mxCell id="1mNPDQz00sNLuUKmPUR4-11" value="" style="edgeStyle=none;curved=1;rounded=0;orthogonalLoop=1;jettySize=auto;html=1;fontSize=12;startSize=8;endSize=8;" edge="1" parent="WIyWlLk6GJQsqaUBKTNV-1" source="1mNPDQz00sNLuUKmPUR4-8" target="1mNPDQz00sNLuUKmPUR4-10">
          <mxGeometry relative="1" as="geometry" />
        </mxCell>
        <mxCell id="1mNPDQz00sNLuUKmPUR4-13" value="" style="edgeStyle=none;curved=1;rounded=0;orthogonalLoop=1;jettySize=auto;html=1;fontSize=12;startSize=8;endSize=8;" edge="1" parent="WIyWlLk6GJQsqaUBKTNV-1" source="1mNPDQz00sNLuUKmPUR4-8" target="1mNPDQz00sNLuUKmPUR4-12">
          <mxGeometry relative="1" as="geometry" />
        </mxCell>
        <mxCell id="1mNPDQz00sNLuUKmPUR4-8" value="result = &quot;K&quot;" style="rhombus;whiteSpace=wrap;html=1;rounded=0;" vertex="1" parent="WIyWlLk6GJQsqaUBKTNV-1">
          <mxGeometry x="92.5" y="450" width="255" height="80" as="geometry" />
        </mxCell>
        <mxCell id="1mNPDQz00sNLuUKmPUR4-22" value="" style="edgeStyle=none;curved=1;rounded=0;orthogonalLoop=1;jettySize=auto;html=1;fontSize=12;startSize=8;endSize=8;" edge="1" parent="WIyWlLk6GJQsqaUBKTNV-1" source="1mNPDQz00sNLuUKmPUR4-10" target="1mNPDQz00sNLuUKmPUR4-20">
          <mxGeometry relative="1" as="geometry" />
        </mxCell>
        <mxCell id="1mNPDQz00sNLuUKmPUR4-10" value="рахунок Колі + 1" style="whiteSpace=wrap;html=1;rounded=0;" vertex="1" parent="WIyWlLk6GJQsqaUBKTNV-1">
          <mxGeometry x="390" y="460" width="120" height="60" as="geometry" />
        </mxCell>
        <mxCell id="1mNPDQz00sNLuUKmPUR4-21" value="" style="edgeStyle=none;curved=1;rounded=0;orthogonalLoop=1;jettySize=auto;html=1;fontSize=12;startSize=8;endSize=8;" edge="1" parent="WIyWlLk6GJQsqaUBKTNV-1" source="1mNPDQz00sNLuUKmPUR4-12" target="1mNPDQz00sNLuUKmPUR4-20">
          <mxGeometry relative="1" as="geometry" />
        </mxCell>
        <mxCell id="1mNPDQz00sNLuUKmPUR4-12" value="Рахунок Васі + 1" style="whiteSpace=wrap;html=1;rounded=0;" vertex="1" parent="WIyWlLk6GJQsqaUBKTNV-1">
          <mxGeometry x="-80" y="460" width="120" height="60" as="geometry" />
        </mxCell>
        <mxCell id="1mNPDQz00sNLuUKmPUR4-17" value="" style="edgeStyle=none;curved=1;rounded=0;orthogonalLoop=1;jettySize=auto;html=1;fontSize=12;startSize=8;endSize=8;" edge="1" parent="WIyWlLk6GJQsqaUBKTNV-1" source="1mNPDQz00sNLuUKmPUR4-14" target="1mNPDQz00sNLuUKmPUR4-8">
          <mxGeometry relative="1" as="geometry" />
        </mxCell>
        <mxCell id="1mNPDQz00sNLuUKmPUR4-14" value="Отримуємо наступгий елмент char s" style="rounded=0;whiteSpace=wrap;html=1;" vertex="1" parent="WIyWlLk6GJQsqaUBKTNV-1">
          <mxGeometry x="160" y="350" width="120" height="60" as="geometry" />
        </mxCell>
        <mxCell id="1mNPDQz00sNLuUKmPUR4-24" value="" style="edgeStyle=none;curved=1;rounded=0;orthogonalLoop=1;jettySize=auto;html=1;fontSize=12;startSize=8;endSize=8;" edge="1" parent="WIyWlLk6GJQsqaUBKTNV-1" source="1mNPDQz00sNLuUKmPUR4-20" target="1mNPDQz00sNLuUKmPUR4-23">
          <mxGeometry relative="1" as="geometry" />
        </mxCell>
        <mxCell id="1mNPDQz00sNLuUKmPUR4-20" value="якшо рахунок Колі або Васі &amp;gt;= 11 і модуль різниці між очками =2&amp;nbsp;" style="rhombus;whiteSpace=wrap;html=1;" vertex="1" parent="WIyWlLk6GJQsqaUBKTNV-1">
          <mxGeometry x="20" y="550" width="400" height="110" as="geometry" />
        </mxCell>
        <mxCell id="1mNPDQz00sNLuUKmPUR4-27" value="" style="edgeStyle=none;curved=1;rounded=0;orthogonalLoop=1;jettySize=auto;html=1;fontSize=12;startSize=8;endSize=8;" edge="1" parent="WIyWlLk6GJQsqaUBKTNV-1" source="1mNPDQz00sNLuUKmPUR4-23" target="1mNPDQz00sNLuUKmPUR4-26">
          <mxGeometry relative="1" as="geometry" />
        </mxCell>
        <mxCell id="1mNPDQz00sNLuUKmPUR4-30" value="" style="edgeStyle=none;curved=1;rounded=0;orthogonalLoop=1;jettySize=auto;html=1;fontSize=12;startSize=8;endSize=8;" edge="1" parent="WIyWlLk6GJQsqaUBKTNV-1" source="1mNPDQz00sNLuUKmPUR4-23" target="1mNPDQz00sNLuUKmPUR4-29">
          <mxGeometry relative="1" as="geometry" />
        </mxCell>
        <mxCell id="1mNPDQz00sNLuUKmPUR4-23" value="Рахунок Колі &amp;gt; рахунок Васі" style="rhombus;whiteSpace=wrap;html=1;" vertex="1" parent="WIyWlLk6GJQsqaUBKTNV-1">
          <mxGeometry x="20" y="700" width="400" height="110" as="geometry" />
        </mxCell>
        <mxCell id="1mNPDQz00sNLuUKmPUR4-25" value="" style="endArrow=classic;html=1;rounded=0;fontSize=12;startSize=8;endSize=8;curved=1;exitX=0.983;exitY=0.553;exitDx=0;exitDy=0;exitPerimeter=0;entryX=0.971;entryY=0.454;entryDx=0;entryDy=0;entryPerimeter=0;" edge="1" parent="WIyWlLk6GJQsqaUBKTNV-1" source="1mNPDQz00sNLuUKmPUR4-20" target="1mNPDQz00sNLuUKmPUR4-4">
          <mxGeometry width="50" height="50" relative="1" as="geometry">
            <mxPoint x="200" y="660" as="sourcePoint" />
            <mxPoint x="250" y="610" as="targetPoint" />
            <Array as="points">
              <mxPoint x="910" y="460" />
            </Array>
          </mxGeometry>
        </mxCell>
        <mxCell id="1mNPDQz00sNLuUKmPUR4-32" value="" style="edgeStyle=none;curved=1;rounded=0;orthogonalLoop=1;jettySize=auto;html=1;fontSize=12;startSize=8;endSize=8;" edge="1" parent="WIyWlLk6GJQsqaUBKTNV-1" source="1mNPDQz00sNLuUKmPUR4-26" target="1mNPDQz00sNLuUKmPUR4-31">
          <mxGeometry relative="1" as="geometry" />
        </mxCell>
        <mxCell id="1mNPDQz00sNLuUKmPUR4-26" value="total Колі + 1" style="whiteSpace=wrap;html=1;" vertex="1" parent="WIyWlLk6GJQsqaUBKTNV-1">
          <mxGeometry x="60" y="840" width="120" height="60" as="geometry" />
        </mxCell>
        <mxCell id="1mNPDQz00sNLuUKmPUR4-28" style="edgeStyle=none;curved=1;rounded=0;orthogonalLoop=1;jettySize=auto;html=1;exitX=0.75;exitY=1;exitDx=0;exitDy=0;fontSize=12;startSize=8;endSize=8;" edge="1" parent="WIyWlLk6GJQsqaUBKTNV-1" source="1mNPDQz00sNLuUKmPUR4-26" target="1mNPDQz00sNLuUKmPUR4-26">
          <mxGeometry relative="1" as="geometry" />
        </mxCell>
        <mxCell id="1mNPDQz00sNLuUKmPUR4-33" value="" style="edgeStyle=none;curved=1;rounded=0;orthogonalLoop=1;jettySize=auto;html=1;fontSize=12;startSize=8;endSize=8;" edge="1" parent="WIyWlLk6GJQsqaUBKTNV-1" source="1mNPDQz00sNLuUKmPUR4-29" target="1mNPDQz00sNLuUKmPUR4-31">
          <mxGeometry relative="1" as="geometry" />
        </mxCell>
        <mxCell id="1mNPDQz00sNLuUKmPUR4-29" value="total Васі + 1" style="whiteSpace=wrap;html=1;" vertex="1" parent="WIyWlLk6GJQsqaUBKTNV-1">
          <mxGeometry x="270" y="840" width="120" height="60" as="geometry" />
        </mxCell>
        <mxCell id="1mNPDQz00sNLuUKmPUR4-31" value="рахунок партії Колі і Васі стає 0" style="whiteSpace=wrap;html=1;" vertex="1" parent="WIyWlLk6GJQsqaUBKTNV-1">
          <mxGeometry x="160" y="920" width="120" height="60" as="geometry" />
        </mxCell>
        <mxCell id="1mNPDQz00sNLuUKmPUR4-38" value="" style="edgeStyle=none;curved=1;rounded=0;orthogonalLoop=1;jettySize=auto;html=1;fontSize=12;startSize=8;endSize=8;" edge="1" parent="WIyWlLk6GJQsqaUBKTNV-1" source="1mNPDQz00sNLuUKmPUR4-34" target="1mNPDQz00sNLuUKmPUR4-37">
          <mxGeometry relative="1" as="geometry" />
        </mxCell>
        <mxCell id="1mNPDQz00sNLuUKmPUR4-34" value="Виводити total рахунок Колі і Васі" style="shape=parallelogram;perimeter=parallelogramPerimeter;whiteSpace=wrap;html=1;fixedSize=1;rounded=0;" vertex="1" parent="WIyWlLk6GJQsqaUBKTNV-1">
          <mxGeometry x="60" y="1010" width="240" height="70" as="geometry" />
        </mxCell>
        <mxCell id="1mNPDQz00sNLuUKmPUR4-36" value="" style="endArrow=classic;html=1;rounded=0;fontSize=12;startSize=8;endSize=8;curved=1;exitX=1;exitY=0.5;exitDx=0;exitDy=0;entryX=1;entryY=0;entryDx=0;entryDy=0;" edge="1" parent="WIyWlLk6GJQsqaUBKTNV-1" target="1mNPDQz00sNLuUKmPUR4-4">
          <mxGeometry width="50" height="50" relative="1" as="geometry">
            <mxPoint x="279" y="940" as="sourcePoint" />
            <mxPoint x="270" y="238.55999999999995" as="targetPoint" />
            <Array as="points">
              <mxPoint x="429" y="940" />
              <mxPoint x="839" y="570" />
              <mxPoint x="520" y="190" />
            </Array>
          </mxGeometry>
        </mxCell>
        <mxCell id="1mNPDQz00sNLuUKmPUR4-40" value="" style="edgeStyle=none;curved=1;rounded=0;orthogonalLoop=1;jettySize=auto;html=1;fontSize=12;startSize=8;endSize=8;" edge="1" parent="WIyWlLk6GJQsqaUBKTNV-1" source="1mNPDQz00sNLuUKmPUR4-37" target="1mNPDQz00sNLuUKmPUR4-39">
          <mxGeometry relative="1" as="geometry" />
        </mxCell>
        <mxCell id="1mNPDQz00sNLuUKmPUR4-45" value="" style="edgeStyle=none;curved=1;rounded=0;orthogonalLoop=1;jettySize=auto;html=1;fontSize=12;startSize=8;endSize=8;" edge="1" parent="WIyWlLk6GJQsqaUBKTNV-1" source="1mNPDQz00sNLuUKmPUR4-37" target="1mNPDQz00sNLuUKmPUR4-44">
          <mxGeometry relative="1" as="geometry" />
        </mxCell>
        <mxCell id="1mNPDQz00sNLuUKmPUR4-37" value="кількість очок від подач в обох = 0" style="rhombus;whiteSpace=wrap;html=1;rounded=0;" vertex="1" parent="WIyWlLk6GJQsqaUBKTNV-1">
          <mxGeometry x="50" y="1130" width="260" height="80" as="geometry" />
        </mxCell>
        <mxCell id="1mNPDQz00sNLuUKmPUR4-43" value="" style="edgeStyle=none;curved=1;rounded=0;orthogonalLoop=1;jettySize=auto;html=1;fontSize=12;startSize=8;endSize=8;" edge="1" parent="WIyWlLk6GJQsqaUBKTNV-1" source="1mNPDQz00sNLuUKmPUR4-39" target="1mNPDQz00sNLuUKmPUR4-42">
          <mxGeometry relative="1" as="geometry" />
        </mxCell>
        <mxCell id="1mNPDQz00sNLuUKmPUR4-39" value="Вивести рахунок недоіграної партії Колі і Васі відповідно" style="shape=parallelogram;perimeter=parallelogramPerimeter;whiteSpace=wrap;html=1;fixedSize=1;rounded=0;" vertex="1" parent="WIyWlLk6GJQsqaUBKTNV-1">
          <mxGeometry x="60" y="1250" width="240" height="65" as="geometry" />
        </mxCell>
        <mxCell id="1mNPDQz00sNLuUKmPUR4-42" value="End" style="rounded=1;whiteSpace=wrap;html=1;" vertex="1" parent="WIyWlLk6GJQsqaUBKTNV-1">
          <mxGeometry x="120" y="1360" width="120" height="60" as="geometry" />
        </mxCell>
        <mxCell id="1mNPDQz00sNLuUKmPUR4-44" value="End" style="rounded=1;whiteSpace=wrap;html=1;" vertex="1" parent="WIyWlLk6GJQsqaUBKTNV-1">
          <mxGeometry x="370" y="1140" width="120" height="60" as="geometry" />
        </mxCell>
        <mxCell id="G19gofC9CDhBG3PJQtIi-3" value="" style="edgeStyle=orthogonalEdgeStyle;rounded=0;orthogonalLoop=1;jettySize=auto;html=1;" edge="1" parent="WIyWlLk6GJQsqaUBKTNV-1" source="G19gofC9CDhBG3PJQtIi-1" target="1mNPDQz00sNLuUKmPUR4-4">
          <mxGeometry relative="1" as="geometry" />
        </mxCell>
        <mxCell id="G19gofC9CDhBG3PJQtIi-1" value="Введення кількості подач та результати кожної подачі" style="shape=parallelogram;perimeter=parallelogramPerimeter;whiteSpace=wrap;html=1;fixedSize=1;" vertex="1" parent="WIyWlLk6GJQsqaUBKTNV-1">
          <mxGeometry x="120" y="160" width="190" height="60" as="geometry" />
        </mxCell>
        <mxCell id="G19gofC9CDhBG3PJQtIi-4" value="так" style="text;html=1;align=center;verticalAlign=middle;resizable=0;points=[];autosize=1;strokeColor=none;fillColor=none;" vertex="1" parent="WIyWlLk6GJQsqaUBKTNV-1">
          <mxGeometry x="220" y="310" width="40" height="30" as="geometry" />
        </mxCell>
        <mxCell id="G19gofC9CDhBG3PJQtIi-5" value="ні" style="text;html=1;align=center;verticalAlign=middle;resizable=0;points=[];autosize=1;strokeColor=none;fillColor=none;" vertex="1" parent="WIyWlLk6GJQsqaUBKTNV-1">
          <mxGeometry x="15" y="278" width="30" height="30" as="geometry" />
        </mxCell>
        <mxCell id="G19gofC9CDhBG3PJQtIi-6" value="так" style="text;html=1;align=center;verticalAlign=middle;resizable=0;points=[];autosize=1;strokeColor=none;fillColor=none;" vertex="1" parent="WIyWlLk6GJQsqaUBKTNV-1">
          <mxGeometry x="340" y="458" width="40" height="30" as="geometry" />
        </mxCell>
        <mxCell id="G19gofC9CDhBG3PJQtIi-7" value="ні" style="text;html=1;align=center;verticalAlign=middle;resizable=0;points=[];autosize=1;strokeColor=none;fillColor=none;" vertex="1" parent="WIyWlLk6GJQsqaUBKTNV-1">
          <mxGeometry x="55" y="458" width="30" height="30" as="geometry" />
        </mxCell>
        <mxCell id="G19gofC9CDhBG3PJQtIi-8" value="ні" style="text;html=1;align=center;verticalAlign=middle;resizable=0;points=[];autosize=1;strokeColor=none;fillColor=none;" vertex="1" parent="WIyWlLk6GJQsqaUBKTNV-1">
          <mxGeometry x="425" y="558" width="30" height="30" as="geometry" />
        </mxCell>
        <mxCell id="G19gofC9CDhBG3PJQtIi-9" value="так" style="text;html=1;align=center;verticalAlign=middle;resizable=0;points=[];autosize=1;strokeColor=none;fillColor=none;" vertex="1" parent="WIyWlLk6GJQsqaUBKTNV-1">
          <mxGeometry x="220" y="668" width="40" height="30" as="geometry" />
        </mxCell>
        <mxCell id="G19gofC9CDhBG3PJQtIi-10" value="так" style="text;html=1;align=center;verticalAlign=middle;resizable=0;points=[];autosize=1;strokeColor=none;fillColor=none;" vertex="1" parent="WIyWlLk6GJQsqaUBKTNV-1">
          <mxGeometry x="300" y="1138" width="40" height="30" as="geometry" />
        </mxCell>
        <mxCell id="G19gofC9CDhBG3PJQtIi-11" value="ні" style="text;html=1;align=center;verticalAlign=middle;resizable=0;points=[];autosize=1;strokeColor=none;fillColor=none;" vertex="1" parent="WIyWlLk6GJQsqaUBKTNV-1">
          <mxGeometry x="185" y="1208" width="30" height="30" as="geometry" />
        </mxCell>
      </root>
    </mxGraphModel>
  </diagram>
</mxfile>
